# xmcd
#
# Track frame offsets: 
#        150
#        21404
#        34595
#        50703
#        67125
#        83561
#        101057
#        117431
#        139136
#        159916
#        178692
#        196637
#        217969
#        236620
#        265127
#        277121
#        288095
#        296845
#        315747
#
# Disc length: 4438 seconds
#
# Revision: 0
# Processed by: cddbd v1.5.1PL0 Copyright (c) Steve Scherf et al.
# Submitted via: ExactAudioCopy v0.95a5
#
DISCID=1d115413
DTITLE=Joy Division - Paris
DYEAR=1989
DGENRE=Classical
TTITLE0=Passover (Live In Paris 18.12.79)
TTITLE1=Wilderness (Live In Paris 18.12.79)
TTITLE2=Disorder (Live In Paris 18.12.79)
TTITLE3=Love Will Tear Us Apart (Live In Paris 18.12.79)
TTITLE4=Insight (Live In Paris 18.12.79)
TTITLE5=Shadowplay (Live In Paris 18.12.79)
TTITLE6=Transmission (Live In Paris 18.12.79)
TTITLE7=Day Of The Lords (Live In Paris 18.12.79)
TTITLE8=24 Hours (Live In Paris 18.12.79)
TTITLE9=Colony (Live In Paris 18.12.79)
TTITLE10=These Days (Live In Paris 18.12.79)
TTITLE11=A Means To An End (Live In Paris 18.12.79)
TTITLE12=She's Lost Control (Live In Paris 18.12.79)
TTITLE13=Atrocity Exhibition (Live In Paris 18.12.79)
TTITLE14=Interzone (Live In Paris 18.12.79)
TTITLE15=Warsaw (Live In Paris 18.12.79)
TTITLE16=Insight (Live In Paris 18.12.79 - Radio Edit)
TTITLE17=Shadowplay (Live In Paris 18.12.79 - Radio Edit)
TTITLE18=Transmission (Live In Paris 18.12.79 - Radio Edit)
EXTD=
EXTT0=
EXTT1=
EXTT2=
EXTT3=
EXTT4=
EXTT5=
EXTT6=
EXTT7=
EXTT8=
EXTT9=
EXTT10=
EXTT11=
EXTT12=
EXTT13=
EXTT14=
EXTT15=
EXTT16=
EXTT17=
EXTT18=
PLAYORDER=
